<?xml version="1.0" encoding="utf-8"?>
<svg viewBox="0 0 512 512" xmlns="http://www.w3.org/2000/svg">
  <defs>
    <style type="text/css">

	.st0{fill:#585858;}

</style>
  </defs>
  <g>
    <path class="st0" d="M 451.422 315.109 L 512 276.031 L 437.75 225.218 L 488.563 192 L 420.157 158.781 L 411.844 157.062 L 392.047 83.765 L 347.781 143.843 L 312.484 136.546 L 298.781 82.562 L 265.781 125.562 L 296.531 133.265 L 240.359 121.656 L 62.531 98.047 L 62.531 88.422 C 62.531 74.953 51.594 64 38.094 64 L 24.438 64 C 10.938 64 0 74.953 0 88.422 L 0 100.156 C 0 112.531 9.219 122.75 21.125 124.359 L 21.5 131.422 L 31.281 233.047 L 31.244 233.129 L 122.62 284.554 L 371.312 438.236 L 439.703 448 L 412.328 405.016 L 498.328 385.469 L 451.422 315.109 Z"/>
  </g>
</svg>